<?xml version="1.0" encoding="UTF-8"?>
<svg width="293px" height="294px" viewBox="0 0 293 294" version="1.1" xmlns="http://www.w3.org/2000/svg" xmlns:xlink="http://www.w3.org/1999/xlink">
    <!-- Generator: Sketch 52.6 (67491) - http://www.bohemiancoding.com/sketch -->
    <title>Under construction</title>
    <desc>Created with Sketch.</desc>
    <g id="Page-1" stroke="none" stroke-width="1" fill="none" fill-rule="evenodd">
        <g id="Illustrations" transform="translate(-1406.000000, -1286.000000)" fill-rule="nonzero">
            <g id="Under-construction" transform="translate(1406.000000, 1276.000000)">
                <path d="M293,156.500387 C293,237.409841 227.41087,303 146.49845,303 C65.5891302,303 0,237.409841 0,156.500387 C0,75.5909337 65.5891302,10 146.49845,10 C227.41087,10 293,75.5909337 293,156.500387" id="Fill-1" fill="#A5CAF4"></path>
                <g id="Group-4" transform="translate(144.000000, 178.000000)">
                    <g id="Group-3" transform="translate(102.090909, 9.831461)">
                        <path d="M3.21212121,73.0337079 C5.08777712,72.5048909 11.2083243,65.639892 15.552229,60.0156 C19.8961337,54.3913081 19.5942266,54.0648478 20.0606061,53.3382017 L20.0606061,1.90176735 L14.8435099,0 L3.21212121,73.0337079 Z" id="Fill-15" fill="#713615"></path>
                        <path d="M0.404040404,77.247191 C8.12626259,71.6106301 12.5161254,65.2628077 15.8484848,61.3043761 L15.8484848,0 L0.404040404,2.04906391 L0.404040404,77.247191 Z" id="Fill-16" fill="#975935"></path>
                    </g>
                    <g id="Group-3" transform="translate(17.848485, 9.831461)">
                        <path d="M6.02020202,113.764045 C8.69352573,113.764045 15.2292826,112.996613 20.0606061,111.068973 L20.0606061,2.89593941 L14.9987453,0 L6.02020202,113.764045 Z" id="Fill-15" fill="#713615"></path>
                        <path d="M0.404040404,115.168539 C2.35992562,115.168539 10.0363871,114.9328 15.8484848,112.905136 L15.8484848,0 L0.404040404,3.10390489 L0.404040404,115.168539 Z" id="Fill-16" fill="#975935"></path>
                    </g>
                    <g id="Group-2">
                        <rect id="Rectangle-20" fill="#000000" x="15.4444444" y="9.83146067" width="113.727273" height="44.9438202"></rect>
                        <rect id="Rectangle-20" fill="#292726" x="9.82828283" y="9.83146067" width="113.727273" height="44.9438202"></rect>
                        <polygon id="Rectangle" fill="#FFCE00" transform="translate(21.761214, 21.769649) rotate(45.000000) translate(-21.761214, -21.769649) " points="28.0776807 -1.40073052 27.678039 44.9400276 15.4447471 32.4555115 15.6337794 11.2063224"></polygon>
                        <polygon id="Rectangle" fill="#FFCE00" transform="translate(113.728711, 42.134847) rotate(45.000000) translate(-113.728711, -42.134847) " points="109.700011 15.4541222 122.151031 28.1749767 118.063659 32.3496057 117.874396 55.9792642 105.306392 68.8155716 105.693439 19.5462264"></polygon>
                        <polygon id="Rectangle" fill="#FFCE00" transform="translate(47.035354, 32.303371) rotate(45.000000) translate(-47.035354, -32.303371) " points="53.3484281 -5.61082737 52.8503742 57.5772848 40.722279 70.2175689 41.2205558 7.00118407"></polygon>
                        <polygon id="Rectangle" fill="#FFCE00" transform="translate(83.540404, 32.303371) rotate(45.000000) translate(-83.540404, -32.303371) " points="89.8534786 -5.61082737 89.3724808 57.5406012 77.2273295 70.2175689 77.7258565 6.98720749"></polygon>
                    </g>
                </g>
                <g id="Group" transform="translate(130.500000, 211.000000) scale(-1, 1) translate(-130.500000, -211.000000) translate(17.000000, 118.000000)">
                    <path d="M147.417879,21.1363636 C124.619475,21.1363636 105.962963,39.6779944 105.962963,62.3383977 L105.962963,156.810613 L105.962963,169.785539 C113.883538,171.36683 122.645335,171.909091 131.033828,171.909091 C155.215045,171.909091 178.38284,156.928627 197.444444,145.013329 L196.262626,62.3383977 C196.262626,39.6779944 177.608077,21.1363636 154.809673,21.1363636 L147.417879,21.1363636 Z" id="Fill-3" fill="#374668"></path>
                    <path d="M135.518519,5.63636364 L135.518519,23.7127463 L135.52049,23.7127463 C135.53363,32.4085576 142.773255,39.4545455 151.702718,39.4545455 C160.63218,39.4545455 167.873121,32.4085576 167.886917,23.7127463 L167.888889,23.7127463 L167.888889,5.63636364 L135.518519,5.63636364" id="Fill-15" fill="#ECC0A6"></path>
                    <g id="Group-129" transform="translate(28.174358, 36.114244) rotate(106.000000) translate(-28.174358, -36.114244) translate(14.174358, 21.614244)" fill="#F3CFB9">
                        <path d="M2.40720614,14.3935811 L4.59323175,16.5774727 L4.5995158,16.5699363 C5.03631667,16.1102624 5.75348223,16.1033836 6.20579809,16.5536442 C6.65759218,17.0065981 6.67137604,17.7441364 6.23614891,18.2048893 L6.22776885,18.2135013 L8.11469838,20.098658 L8.12255468,20.0905842 C8.55673331,19.6298304 9.27494836,19.6240301 9.72569246,20.0753667 C10.1780088,20.5261661 10.1907447,21.2642422 9.75656606,21.7249961 L9.74870975,21.7330697 L11.5632276,23.5470468 L11.5700339,23.5373557 C12.0068348,23.0776819 12.7245256,23.0718812 13.1757939,23.5232183 C13.6286355,23.9750955 13.6413714,24.7131717 13.2061428,25.1723083 L13.1982865,25.180382 L15.2001328,27.1814727 L26.3335328,14.5584827 L14.0334435,1.81845571" id="Fill-109" transform="translate(14.370369, 14.499964) rotate(-7.000000) translate(-14.370369, -14.499964) "></path>
                    </g>
                    <path d="M164.525814,33.3337773 C164.719626,32.5060451 165.489497,31.4963502 166.245569,31.0796256 C166.245569,31.0796256 172.817073,27.4352135 176.181047,25.7505358 C178.978578,24.3495329 185.003324,22.5454545 185.003324,22.5454545 L188.56769,23.0608365 C188.56769,23.0608365 189.377951,30.4719965 191.268833,44.5575293 C192.19014,51.42051 195.029,68.0049191 196.009221,73.8065183 C199.118172,92.2073381 196.207929,137.615694 196.207929,137.615694 C196.098185,139.487916 194.505351,140.962035 192.629623,140.907632 L161.080842,139.992616 C160.145895,139.965499 159.413952,139.194917 159.445422,138.252225 C159.445422,138.252225 160.228198,116.636057 160.155181,94.9039509 C160.098419,78.0101859 159.81066,61.2100145 160.155181,56.9325484 C160.804994,48.8646371 164.525814,33.3337773 164.525814,33.3337773 Z" id="Rectangle-16" fill="#FF6003" transform="translate(178.444444, 81.727273) scale(-1, 1) translate(-178.444444, -81.727273) "></path>
                    <polygon id="Rectangle-19" fill="#D8D8D8" points="159.444444 111.318182 197.444444 111.318182 197.444444 122.590909 159.838205 122.590909"></polygon>
                    <path d="M187.386337,28.2271605 C181.129316,25.3488067 175.936202,24.7834696 169.296296,23.9545455 L169.296296,45.9286499 C184.395455,48.722673 197.709775,59.1816286 203.435447,74.6513908 C208.913027,89.4484694 205.9575,108.260466 196.286434,120.741395 C192.718063,125.349506 193.9988,129.463012 198.585588,133.045429 C202.022425,135.730279 206.594237,135.938164 210.173678,133.93711 C211.37312,133.267042 211.103557,132.422617 211.998254,131.267484 C226.180574,112.962514 231.204926,88.9987061 223.170231,67.2878259 C217.020001,50.6733901 203.439448,35.610991 187.386337,28.2271605 Z" id="Fill-101" fill="#374668"></path>
                    <path d="M164.399199,32.6544568 C164.527185,31.8208501 165.114303,30.6491059 165.765277,30.0872469 C165.765277,30.0872469 166.857121,28.3604628 174.535594,25.3929063 C182.214067,22.4253497 185.18587,22.546139 185.18587,22.546139 L188.148066,22.546139 C188.148066,22.546139 190.600722,25.3602231 190.600722,31.1450783 C190.600722,33.6709966 196.010218,70.059309 196.010218,70.059309 C196.122371,70.815889 195.873393,71.9582795 195.438508,72.5899532 C195.438508,72.5899532 189.78797,82.1177766 181.100788,81.7148437 C172.413606,81.3119108 161.340216,68.2829996 161.340216,68.2829996 C161.340216,68.2829996 160.878579,65.5779143 160.853003,62.5135717 C160.827427,59.4492292 161.235569,56.8289243 161.340216,55.3024643 C161.700984,50.0400847 164.399199,32.6544568 164.399199,32.6544568 Z" id="Path-7" fill="#FF6003" transform="translate(178.444444, 52.136364) scale(-1, 1) translate(-178.444444, -52.136364) "></path>
                    <g id="Page-1" transform="translate(21.518519, 12.681818)" fill="#F3CFB9">
                        <path d="M2.18360979,20.4920911 C3.14575829,21.3949581 4.61145648,21.3310241 5.45677197,20.3502211 L20.9106222,8.20410957 C21.7559365,7.22279736 19.8778509,5.26138051 18.9162039,4.36004217 C17.9535572,3.45717408 10.0903609,7.65431396 9.24554484,8.63562728 L1.97166929,17.0807074 C1.42502305,17.7154353 1.27150704,18.5781303 1.49147786,19.3525558 C1.6115094,19.7759419 1.84358759,20.1731018 2.18360979,20.4920911 Z" id="Fill-1" transform="translate(11.259260, 12.681652) rotate(108.000000) translate(-11.259260, -12.681652) "></path>
                    </g>
                    <path d="M72.9020053,1.38844106 C66.5882045,-1.47839839 59.9842037,-3.32782617 53.288261,-4.16270727 C53.288261,-4.16270727 46.8142496,-2.49314053 46.8217344,1.42545259 C46.8239655,2.59351799 48.3497149,5.82244767 54.9120895,11.7230477 C59.5967239,15.9352659 65.3672627,18.8750626 71.2262746,23.7950585 C79.3762763,30.6388701 85.6740305,39.9993614 87.8024442,45.6320404 C93.3529892,60.3187717 92.8455378,68.3551555 83.1187836,80.7156171 C79.529871,85.2792552 95.7658491,93.9847227 96.6656973,92.8407384 C110.929679,74.7124466 115.826899,59.9154089 107.685164,38.3664389 C101.453007,21.8759033 89.1007892,8.74273777 72.9020053,1.38844106 Z" id="Fill-101" fill="#374668" transform="translate(79.219805, 44.390305) rotate(105.000000) translate(-79.219805, -44.390305) "></path>
                    <path d="M108.441344,35.4279409 C108.520678,34.5664342 109.132197,33.444369 109.820333,32.9231771 C109.820333,32.9231771 115.230571,28.6185536 120.299853,26.3029351 C125.369136,23.9873167 130.629822,22.5454545 130.629822,22.5454545 L133.50175,24.3089283 L135.724036,24.6326622 C135.724036,24.6326622 134.307084,31.7302128 136.186472,45.834988 C137.102177,52.7073443 141.95093,67.3672223 142.925193,73.1767472 C146.015243,91.6027048 141.220142,139.030909 141.220142,139.030909 C141.042251,140.899819 139.403313,142.371193 137.538988,142.316717 L106.182005,141.40045 C105.252742,141.373296 104.525249,140.601661 104.556528,139.657682 C104.556528,139.657682 105.334544,118.011983 105.261971,96.2501886 C105.227391,85.8812478 105.194669,73.732424 105.901435,64.4855181 C106.6082,55.2386124 108.441344,35.4279409 108.441344,35.4279409 Z" id="Rectangle-16" fill="#FF6003"></path>
                    <polygon id="Rectangle-19" fill="#D8D8D8" transform="translate(127.777778, 53.545455) scale(-1, 1) rotate(90.000000) translate(-127.777778, -53.545455) " points="101.709596 47.9158249 153.84596 47.9158249 153.84596 59.1750842 101.709596 59.1750842"></polygon>
                    <path d="M104.733144,112.727273 L142.555556,112.727273 C142.555556,112.727273 142.381187,115.044772 142.301307,116.390893 C142.221427,117.737015 141.798879,124 141.798879,124 L104.555556,124 L104.733144,112.727273 Z" id="Rectangle-19" fill="#D8D8D8"></path>
                    <path d="M104.555556,78.9090909 L143.590658,78.9090909 C143.590658,78.9090909 143.880751,82.5876464 143.937667,84.4365734 C143.994583,86.2855002 143.937667,90.1818182 143.937667,90.1818182 L104.82099,90.1818182 L104.555556,78.9090909 Z" id="Rectangle-19" fill="#D8D8D8"></path>
                    <path d="M146.789384,45.0976431 L203.107744,45.0976431 L203.107744,56.3569024 L149.125541,56.3569024 C149.125541,56.3569024 147.85037,52.7850127 147.407016,51.0060604 C147.18836,50.1287047 146.888516,48.6729985 146.789384,47.4295316 C146.687513,46.1517082 146.789384,45.0976431 146.789384,45.0976431 Z" id="Rectangle-19" fill="#D8D8D8" transform="translate(174.925926, 50.727273) scale(-1, 1) rotate(90.000000) translate(-174.925926, -50.727273) "></path>
                    <path d="M160.136966,77.5 L197.444444,77.5 C197.444444,77.5 197.352204,81.5446705 197.306977,83.5502362 C197.261748,85.555802 197.190227,88.7727273 197.190227,88.7727273 L159.444444,88.7727273 C159.444444,88.7727273 159.536218,84.9868917 159.660907,83.1363636 C159.785597,81.2858355 160.136966,77.5 160.136966,77.5 Z" id="Rectangle-19" fill="#D8D8D8"></path>
                    <path d="M105.286273,156.409091 L103.148148,186 C103.148148,186 125.128233,184.558653 149.543449,176.285106 C173.958665,168.01156 186.185185,156.572818 186.185185,156.572818 C186.185185,156.572818 133.717024,156.648724 106.290436,156.572818 C106.015733,156.572057 105.286273,156.409091 105.286273,156.409091 Z" id="Path-13" fill="#432C1C"></path>
                    <path d="M104.555556,146.496433 C104.555556,145.707989 105.176207,145.099591 105.964073,145.138095 C105.964073,145.138095 136.629115,146.680876 152.17162,146.680876 C166.851822,146.680876 196.638104,145.140175 196.638104,145.140175 C197.417262,145.100771 197.683547,145.582854 197.206786,146.234144 C197.206786,146.234144 190.25043,156.341073 185.582364,156.523692 C176.237822,156.88926 162.064549,157.818182 152.17162,157.818182 C136.783856,157.818182 105.97042,156.579314 105.97042,156.579314 C105.189012,156.548595 104.555556,155.875009 104.555556,155.096086 L104.555556,146.496433 Z" id="Rectangle-17" fill="#000000"></path>
                    <rect id="Rectangle-4" fill="#432C1C" x="118.62963" y="145.136364" width="2.81481481" height="12.6818182"></rect>
                    <rect id="Rectangle-4" fill="#432C1C" x="169.296296" y="145.136364" width="2.81481481" height="12.6818182"></rect>
                    <g id="Group-6" transform="translate(171.703704, 116.954545)" fill="#F3CFB9">
                        <path d="M11.6666667,13.9768789 L14.4273307,16.6434116 C14.9879456,16.0719176 15.8944719,16.0627 16.4656895,16.6124666 C17.0362445,17.1655252 17.0528111,18.0668791 16.5021361,18.6304722 L18.8744782,20.9427841 C19.4337678,20.3693149 20.3416193,20.361414 20.910849,20.9124975 C21.4820665,21.4629226 21.4973079,22.3649348 20.9479583,22.9285279 L23.2295151,25.153272 C23.7907928,24.5791445 24.6979817,24.5712437 25.267874,25.122327 C25.8397543,25.6740689 25.8549955,26.5760811 25.3043206,27.1376991 L27.8224491,29.5909091 C27.8224491,29.5909091 35.2798878,22.4452778 38.2752673,18.6304722 C41.2706469,14.8156666 41.2221746,12.5255097 41.2221746,12.5255097 L26.7883596,0" id="Fill-109"></path>
                        <path d="M18.1844478,20.2728359 L6.40255218,33.2256659 C5.69416892,34.0047028 4.52232215,34.0174628 3.78819091,33.2525293 C3.05217569,32.4889388 3.03145171,31.2357641 3.74109097,30.4560558 L15.5217306,17.5038973 C16.2332539,16.7228457 17.4025887,16.7094141 18.1386039,17.4730044 C18.8733631,18.2399527 18.8947151,19.4904412 18.1844478,20.2728359" id="Fill-103"></path>
                        <path d="M23.7737582,24.4592848 L12.2779498,36.0496484 C11.5135468,36.8199509 10.2532967,36.833884 9.46115877,36.0788416 C8.66902085,35.3211454 8.64602113,34.0857423 9.41110053,33.3134495 L20.905556,21.7237494 C21.6719884,20.9527836 22.9315621,20.9388505 23.7243765,21.6932292 C24.5165144,22.4509254 24.5388376,23.6863285 23.7737582,24.4592848" id="Fill-105"></path>
                        <path d="M27.9993641,28.673115 L19.2983779,37.4617376 C18.5355702,38.2282064 17.2830586,38.2420822 16.4946894,37.4901498 C15.7069929,36.7362352 15.6841221,35.5059206 16.4455845,34.7361479 L25.1472435,25.9488469 C25.9093784,25.1803958 27.16189,25.1671809 27.9502592,25.9184524 C28.7372831,26.6730278 28.760154,27.9033424 27.9993641,28.673115" id="Fill-107"></path>
                        <path d="M15.3293138,16.0047394 L3.83350534,27.595103 C3.0691024,28.3654054 1.80885224,28.3793385 1.01671433,27.6242963 C0.224576415,26.8666 0.201576681,25.6311968 0.966656077,24.858904 L12.4611116,13.269204 C13.227544,12.4982381 14.4871177,12.484305 15.279932,13.2386838 C16.0720699,13.99638 16.0943931,15.2317832 15.3293138,16.0047394" id="Fill-111"></path>
                    </g>
                    <g id="Group-6" transform="translate(18.399464, 25.491531) rotate(95.000000) translate(-18.399464, -25.491531) translate(-1.100536, 8.991531)" fill="#F3CFB9">
                        <path d="M11.6666667,9.28504002 L14.32673,11.9116521 C14.8669156,11.348714 15.7404074,11.3396344 16.2908094,11.8811704 C16.8405729,12.4259492 16.8565358,13.313809 16.3259278,13.8689645 L18.61182,16.1466588 C19.1507286,15.581775 20.0254974,15.5739924 20.5739838,16.1168256 C21.1243858,16.6590103 21.1390718,17.5475185 20.6097408,18.1026741 L22.808156,20.2941116 C23.3489804,19.7285794 24.2231106,19.7207968 24.7722356,20.2636299 C25.323276,20.8071117 25.3379619,21.6956199 24.807354,22.2488299 L26.9716134,23.9545455 C26.9716134,23.9545455 33.7338518,16.2373746 36.3332702,12.0853358 C38.9326886,7.93329692 38.3520392,6.9060735 38.3520392,6.9060735 L21.4029026,0" id="Fill-109"></path>
                        <path d="M18.1844478,16.0455632 L6.40255218,28.9983931 C5.69416892,29.77743 4.52232215,29.7901901 3.78819091,29.0252566 C3.05217569,28.2616661 3.03145171,27.0084914 3.74109097,26.228783 L15.5217306,13.2766246 C16.2332539,12.495573 17.4025887,12.4821413 18.1386039,13.2457317 C18.8733631,14.01268 18.8947151,15.2631685 18.1844478,16.0455632" id="Fill-103"></path>
                        <path d="M23.7737582,20.2320121 L12.2779498,31.8223757 C11.5135468,32.5926782 10.2532967,32.6066113 9.46115877,31.8515689 C8.66902085,31.0938727 8.64602113,29.8584696 9.41110053,29.0861768 L20.905556,17.4964767 C21.6719884,16.7255108 22.9315621,16.7115777 23.7243765,17.4659565 C24.5165144,18.2236527 24.5388376,19.4590558 23.7737582,20.2320121" id="Fill-105"></path>
                        <path d="M20.3269532,31.8902315 C19.6489019,32.5715371 18.5355583,32.583871 17.8347857,31.9154867 C17.134611,31.2453403 17.1142813,30.1517273 17.7911368,29.4674851 L25.5259447,21.6565508 C26.2033982,20.9734832 27.3167417,20.9617365 28.0175144,21.6295336 C28.7170912,22.3002671 28.7374207,23.3938802 28.0611632,24.0781225 L20.3269532,31.8902315 Z" id="Fill-107"></path>
                        <path d="M15.3293138,11.7774667 L3.83350534,23.3678303 C3.0691024,24.1381327 1.80885224,24.1520658 1.01671433,23.3970235 C0.224576415,22.6393273 0.201576681,21.4039241 0.966656077,20.6316313 L12.4611116,9.04193123 C13.227544,8.27096539 14.4871177,8.25703226 15.279932,9.01141107 C16.0720699,9.76910729 16.0943931,11.0045104 15.3293138,11.7774667" id="Fill-111"></path>
                    </g>
                </g>
                <g id="Group-22" transform="translate(35.000000, 0.000000)">
                    <path d="M111.361446,74.5053444 C111.361446,119.177605 88.2534087,103.045165 58.6698935,103.045165 C29.085316,103.045165 4.22891566,116.153746 4.22891566,74.5053444 C4.22891566,44.6071494 28.2119313,18.3529412 57.7954463,18.3529412 C87.3784301,18.3529412 111.361446,44.6071494 111.361446,74.5053444" id="Fill-10" fill="#736253"></path>
                    <path d="M57.7957116,142.588235 C31.4355768,142.588235 9.86746988,121.179485 9.86746988,95.0129406 L9.86746988,74.3977701 C9.86746988,69.3301331 10.6764929,64.4400768 12.1724422,59.8509065 C18.4025562,40.7417468 28.5110968,26.8235294 57.7957116,26.8235294 C87.0808573,26.8235294 95.6594736,39.5972207 102.571736,57.4717466 C104.605973,62.7364613 105.722892,68.4427565 105.722892,74.3977701 L105.722892,95.0129406 C105.722892,121.179485 84.1553155,142.588235 57.7957116,142.588235 Z" id="Fill-12" fill="#F3CFB9"></path>
                    <path d="M15.5640658,62.149391 L19.1314225,71.9756492 L70.9132807,53.6643673 C88.8780356,47.3096714 105.636139,44.268297 109.954258,27.3132581 C109.954258,27.3132581 91.8005231,4.69051051 52.1472091,18.7136585 C12.4938915,32.7404866 15.5640658,62.149391 15.5640658,62.149391" id="Fill-160" fill="#736253" transform="translate(62.731562, 43.052471) rotate(19.000000) translate(-62.731562, -43.052471) "></path>
                    <path d="M60.5205092,125.027041 C56.8976287,126.252593 52.9160853,125.633221 49.872199,123.367099 C49.2607769,122.912631 49.1557757,122.07737 49.6425516,121.497107 C50.1260169,120.919964 65.7987013,115.614459 66.5493328,115.772667 C67.3131973,115.927745 67.7953757,116.634825 67.6292818,117.35503 C66.8021446,120.931115 64.1433899,123.801489 60.5205092,125.027041" id="Fill-164" fill="#3D3229" transform="translate(58.499021, 120.707144) rotate(20.000000) translate(-58.499021, -120.707144) "></path>
                    <path d="M85.9879518,87.5294118 C84.4325653,87.5294118 83.1686747,86.2626933 83.1686747,84.7069959 C83.1686747,83.1507419 84.4325653,81.8823529 85.9879518,81.8823529 C87.5433384,81.8823529 88.8072289,83.1507419 88.8072289,84.7069959 C88.8072289,86.2626933 87.5433384,87.5294118 85.9879518,87.5294118" id="Fill-14" fill="#3D3229"></path>
                    <path d="M29.6024096,87.5294118 C28.0470231,87.5294118 26.7831325,86.2626933 26.7831325,84.7069959 C26.7831325,83.1507419 28.0470231,81.8823529 29.6024096,81.8823529 C31.1577962,81.8823529 32.4216867,83.1507419 32.4216867,84.7069959 C32.4216867,86.2626933 31.1577962,87.5294118 29.6024096,87.5294118" id="Fill-16" fill="#3D3229"></path>
                    <path d="M57.2822628,86.1188349 C54.6076475,86.0540619 52.3633725,88.6465875 52.2963195,91.8750663 L52.1582103,98.4803058 C52.0901564,101.711997 54.2238439,104.406232 56.8984592,104.469399 C59.5745756,104.534172 61.8173493,101.944858 61.8844023,98.7131675 L62.0225115,92.107928 C62.0905654,88.8778433 59.9583791,86.1836078 57.2822628,86.1188349" id="Fill-30" fill="#F4AE82"></path>
                    <path d="M94.4457831,93.1764706 C94.4457831,87.7183393 98.8630994,83.2941176 104.312711,83.2941176 C109.761782,83.2941176 114.180723,87.7183393 114.180723,93.1764706 C114.180723,98.6346019 109.761782,103.058824 104.312711,103.058824 C98.8630994,103.058824 94.4457831,98.6346019 94.4457831,93.1764706" id="Fill-36" fill="#F3CFB9"></path>
                    <path d="M0,93.1764706 C0,87.7183393 4.41731622,83.2941176 9.86692825,83.2941176 C15.3159987,83.2941176 19.7349398,87.7183393 19.7349398,93.1764706 C19.7349398,98.6346019 15.3159987,103.058824 9.86692825,103.058824 C4.41731622,103.058824 0,98.6346019 0,93.1764706" id="Fill-39" fill="#F3CFB9"></path>
                </g>
            </g>
        </g>
    </g>
</svg>